<svg xmlns="http://www.w3.org/2000/svg" xmlns:xlink="http://www.w3.org/1999/xlink" xmlns:lucid="lucid" width="929" height="744.67"><g transform="translate(-340 -251.33333333333337)" lucid:page-tab-id="0_0"><path d="M800 415v353.6" stroke="#333" stroke-width="5" fill="none"/><path d="M800 412.5l2.5-.07v2.64h-5v-2.66z" fill="#333"/><path d="M800 768.54v2.56" stroke="#333" stroke-width="5" fill="none"/><path d="M869.33 340.67c0 38.3-31.04 69.33-69.33 69.33-38.3 0-69.33-31.04-69.33-69.33 0-38.3 31.04-69.34 69.33-69.34 38.3 0 69.33 31.04 69.33 69.34z" stroke="#333" stroke-width="5" fill-opacity="0"/><path d="M681.3 967.86l118.08-195.72M681.32 967.8L680 970M799.34 772.2l1.33-2.2M918.7 967.86l-117.16-194.8M918.68 967.8L920 970M801.57 773.1l-1.32-2.18M663.25 523.5h275M663.3 523.5h-2.55M938.2 523.5h2.55" stroke="#333" stroke-width="5" fill="none"/><path d="M1040 436c0-3.3 2.7-6 6-6h68c3.3 0 6 2.7 6 6v528c0 3.3-2.7 6-6 6h-68c-3.3 0-6-2.7-6-6z" fill="none"/><path d="M1040 970c5.52 0 10-4.48 10-10V710c0-5.52 4.48-10 10-10-5.52 0-10-4.48-10-10V440c0-5.52-4.48-10-10-10" stroke="#333" stroke-width="5" fill="none"/><path d="M480 436c0-3.3 2.7-6 6-6h68c3.3 0 6 2.7 6 6v528c0 3.3-2.7 6-6 6h-68c-3.3 0-6-2.7-6-6z" fill="none"/><path d="M560 970c-5.52 0-10-4.48-10-10V710c0-5.52-4.48-10-10-10 5.52 0 10-4.48 10-10V440c0-5.52 4.48-10 10-10" stroke="#333" stroke-width="5" fill="none"/><path d="M1050.4 341.67c.02 3.3-2.65 6.02-5.96 6.04l-42.6.33c-3.32.02-5.98 2.73-5.96 6.04l.06 7.67c.02 3.3-1.77 4.02-4 1.57l-27.6-30.2c-2.24-2.45-2.27-6.44-.07-8.92l27.15-30.62c2.2-2.47 4-1.8 4.02 1.52l.06 7.66c.02 3.32 2.73 5.98 6.04 5.96l42.6-.32c3.32-.02 6.03 2.64 6.05 5.96zM549.7 315c0-3.3 2.7-6 6-6h42.6c3.32 0 6-2.68 6-6v-7.66c0-3.32 1.8-4 4.02-1.54l27.38 30.4c2.2 2.47 2.2 6.47 0 8.93l-27.38 30.4c-2.2 2.48-4 1.8-4-1.53v-7.66c0-3.32-2.7-6-6-6h-42.6c-3.33 0-6-2.7-6-6z" stroke="#333" stroke-width="5" fill-opacity="0"/><path d="M360 302.67c0-3.3 2.7-6 6-6h128c3.3 0 6 2.7 6 6V354c0 3.32-2.7 6-6 6H366c-3.3 0-6-2.68-6-6z" fill="#fff" fill-opacity="0"/><use xlink:href="#a" transform="matrix(1,0,0,1,365,301.6699038448354) translate(23.950617283950663 38.93055555555554)"/><path d="M1100 303c0-3.3 2.7-6 6-6h128c3.3 0 6 2.7 6 6v51.34c0 3.3-2.7 6-6 6h-128c-3.3 0-6-2.7-6-6z" fill="#fff" fill-opacity="0"/><use xlink:href="#b" transform="matrix(1,0,0,1,1105,302.0021581187791) translate(0 38.93055555555554)"/><path d="M360 673c0-3.3 2.7-6 6-6h128c3.3 0 6 2.7 6 6v54c0 3.3-2.7 6-6 6H366c-3.3 0-6-2.7-6-6z" fill="#fff" fill-opacity="0"/><use xlink:href="#c" transform="matrix(1,0,0,1,365,672) translate(28.7654320987655 39.055555555555536)"/><path d="M1100 676c0-3.3 2.7-6 6-6h128c3.3 0 6 2.7 6 6v51.33c0 3.32-2.7 6-6 6h-128c-3.3 0-6-2.68-6-6z" fill="#fff" fill-opacity="0"/><use xlink:href="#d" transform="matrix(1,0,0,1,1105,675) translate(0 35.55555555555554)"/><defs><path fill="#333" d="M197 0v-115H63V0H30v-248h33v105h134v-105h34V0h-34" id="e"/><path fill="#333" d="M100-194c63 0 86 42 84 106H49c0 40 14 67 53 68 26 1 43-12 49-29l28 8c-11 28-37 45-77 45C44 4 14-33 15-96c1-61 26-98 85-98zm52 81c6-60-76-77-97-28-3 7-6 17-6 28h103" id="f"/><path fill="#333" d="M141-36C126-15 110 5 73 4 37 3 15-17 15-53c-1-64 63-63 125-63 3-35-9-54-41-54-24 1-41 7-42 31l-33-3c5-37 33-52 76-52 45 0 72 20 72 64v82c-1 20 7 32 28 27v20c-31 9-61-2-59-35zM48-53c0 20 12 33 32 33 41-3 63-29 60-74-43 2-92-5-92 41" id="g"/><path fill="#333" d="M85-194c31 0 48 13 60 33l-1-100h32l1 261h-30c-2-10 0-23-3-31C134-8 116 4 85 4 32 4 16-35 15-94c0-66 23-100 70-100zm9 24c-40 0-46 34-46 75 0 40 6 74 45 74 42 0 51-32 51-76 0-42-9-74-50-73" id="h"/><g id="a"><use transform="matrix(0.12345679012345674,0,0,0.12345679012345674,0,0)" xlink:href="#e"/><use transform="matrix(0.12345679012345674,0,0,0.12345679012345674,31.975308641975296,0)" xlink:href="#f"/><use transform="matrix(0.12345679012345674,0,0,0.12345679012345674,56.66666666666664,0)" xlink:href="#g"/><use transform="matrix(0.12345679012345674,0,0,0.12345679012345674,81.358024691358,0)" xlink:href="#h"/></g><path fill="#333" d="M212-179c-10-28-35-45-73-45-59 0-87 40-87 99 0 60 29 101 89 101 43 0 62-24 78-52l27 14C228-24 195 4 139 4 59 4 22-46 18-125c-6-104 99-153 187-111 19 9 31 26 39 46" id="i"/><path fill="#333" d="M106-169C34-169 62-67 57 0H25v-261h32l-1 103c12-21 28-36 61-36 89 0 53 116 60 194h-32v-121c2-32-8-49-39-48" id="j"/><path fill="#333" d="M114-163C36-179 61-72 57 0H25l-1-190h30c1 12-1 29 2 39 6-27 23-49 58-41v29" id="k"/><path fill="#333" d="M24-231v-30h32v30H24zM24 0v-190h32V0H24" id="l"/><path fill="#333" d="M135-143c-3-34-86-38-87 0 15 53 115 12 119 90S17 21 10-45l28-5c4 36 97 45 98 0-10-56-113-15-118-90-4-57 82-63 122-42 12 7 21 19 24 35" id="m"/><path fill="#333" d="M59-47c-2 24 18 29 38 22v24C64 9 27 4 27-40v-127H5v-23h24l9-43h21v43h35v23H59v120" id="n"/><g id="b"><use transform="matrix(0.12345679012345674,0,0,0.12345679012345674,0,0)" xlink:href="#i"/><use transform="matrix(0.12345679012345674,0,0,0.12345679012345674,31.975308641975296,0)" xlink:href="#j"/><use transform="matrix(0.12345679012345674,0,0,0.12345679012345674,56.66666666666664,0)" xlink:href="#k"/><use transform="matrix(0.12345679012345674,0,0,0.12345679012345674,71.358024691358,0)" xlink:href="#l"/><use transform="matrix(0.12345679012345674,0,0,0.12345679012345674,81.11111111111109,0)" xlink:href="#m"/><use transform="matrix(0.12345679012345674,0,0,0.12345679012345674,103.3333333333333,0)" xlink:href="#n"/></g><path fill="#333" d="M160-131c35 5 61 23 61 61C221 17 115-2 30 0v-248c76 3 177-17 177 60 0 33-19 50-47 57zm-97-11c50-1 110 9 110-42 0-47-63-36-110-37v79zm0 115c55-2 124 14 124-45 0-56-70-42-124-44v89" id="o"/><path fill="#333" d="M100-194c62-1 85 37 85 99 1 63-27 99-86 99S16-35 15-95c0-66 28-99 85-99zM99-20c44 1 53-31 53-75 0-43-8-75-51-75s-53 32-53 75 10 74 51 75" id="p"/><path fill="#333" d="M179-190L93 31C79 59 56 82 12 73V49c39 6 53-20 64-50L1-190h34L92-34l54-156h33" id="q"/><g id="c"><use transform="matrix(0.1234567901234567,0,0,0.1234567901234567,0,0)" xlink:href="#o"/><use transform="matrix(0.1234567901234567,0,0,0.1234567901234567,29.62962962962961,0)" xlink:href="#p"/><use transform="matrix(0.1234567901234567,0,0,0.1234567901234567,54.320987654320945,0)" xlink:href="#h"/><use transform="matrix(0.1234567901234567,0,0,0.1234567901234567,79.01234567901228,0)" xlink:href="#q"/></g><path fill="#333" d="M84 4C-5 8 30-112 23-190h32v120c0 31 7 50 39 49 72-2 45-101 50-169h31l1 190h-30c-1-10 1-25-2-33-11 22-28 36-60 37" id="r"/><path fill="#333" d="M96-169c-40 0-48 33-48 73s9 75 48 75c24 0 41-14 43-38l32 2c-6 37-31 61-74 61-59 0-76-41-82-99-10-93 101-131 147-64 4 7 5 14 7 22l-32 3c-4-21-16-35-41-35" id="s"/><g id="d"><use transform="matrix(0.12345679012345674,0,0,0.12345679012345674,0,0)" xlink:href="#i"/><use transform="matrix(0.12345679012345674,0,0,0.12345679012345674,31.975308641975296,0)" xlink:href="#j"/><use transform="matrix(0.12345679012345674,0,0,0.12345679012345674,56.66666666666664,0)" xlink:href="#r"/><use transform="matrix(0.12345679012345674,0,0,0.12345679012345674,81.358024691358,0)" xlink:href="#k"/><use transform="matrix(0.12345679012345674,0,0,0.12345679012345674,96.04938271604935,0)" xlink:href="#s"/><use transform="matrix(0.12345679012345674,0,0,0.12345679012345674,118.27160493827157,0)" xlink:href="#j"/></g></defs></g></svg>